<?xml version="1.0" encoding="UTF-8" standalone="no"?>
<svg
   xmlns:dc="http://purl.org/dc/elements/1.1/"
   xmlns:cc="http://creativecommons.org/ns#"
   xmlns:rdf="http://www.w3.org/1999/02/22-rdf-syntax-ns#"
   xmlns:svg="http://www.w3.org/2000/svg"
   xmlns="http://www.w3.org/2000/svg"
   version="1.1">
     <g id="mustache">
      <path d="m 92.394,38.262 c -4.853,0 -5.566,3.238 -5.566,3.238 0,0 1.05,-1.436 3.606,-1.146 4.029,0.457 6.1,9.072 -1.037,9.592 C 79.855,50.639 68.176,28.941 50,41.33 31.824,28.941 20.145,50.639 10.604,49.945 3.467,49.425 5.537,40.81 9.567,40.353 c 2.557,-0.289 3.606,1.146 3.606,1.146 0,0 -0.714,-3.238 -5.566,-3.238 -5.995,0 -7.923,6.492 -7.565,9.93 C 0.686,54.4 5.929,62.5 19.74,62.5 40.223,62.5 50,52.207 50,52.207 c 0,0 9.777,10.293 30.26,10.293 13.812,0 19.055,-8.1 19.699,-14.309 0.357,-3.437 -1.57,-9.929 -7.565,-9.929 z"/>
    </g>
  </svg>